<svg width="500" height="200" viewBox="0 0 500 200" fill="none" xmlns="http://www.w3.org/2000/svg">
<rect width="500" height="200" fill="black"/>
<path d="M152.693 99.9045C152.693 121.946 134.629 139.815 112.344 139.815C90.063 139.815 72 121.946 72 99.9045C72 77.8643 90.063 60 112.344 60C134.629 60 152.693 77.8643 152.693 99.9045Z" fill="white"/>
<path d="M131.309 97.1223C124.897 92.8089 116.68 94.5701 112.366 101.056C111.165 102.906 109.517 104.432 107.571 105.495C105.625 106.559 103.442 107.126 101.219 107.147C94.3559 107.147 89.6607 102.371 88.2698 97.4303H88.2637C88.2522 97.3825 88.2452 97.3424 88.2258 97.2928C88.215 97.237 88.2009 97.1818 88.1836 97.1275C87.639 95.0635 87.5018 94.0793 87.5018 91.8874C87.5018 80.0707 99.7558 66.9148 117.411 66.9148C135.488 66.9148 145.835 80.5275 148.498 88.0935C148.454 87.9604 148.411 87.8273 148.363 87.6906C143.233 72.8954 129.046 62.2577 112.347 62.2577C91.3305 62.2577 74.2844 79.1109 74.2844 99.9059C74.2844 118.492 87.8352 134.403 106.636 134.403C121.631 134.403 131.708 126.086 136.332 114.626C138.864 108.359 137.071 100.993 131.309 97.1223Z" fill="#003863"/>
<path d="M148.735 88.8271C146.51 81.4491 136.088 66.9157 117.409 66.9157C99.7543 66.9157 87.5002 80.0716 87.5002 91.8892C87.5002 94.0803 87.6375 95.0644 88.1821 97.1284C87.9533 96.2243 87.8302 95.3194 87.8302 94.4388C87.8302 82.1348 100.29 73.6081 113.095 73.6081C130.43 73.6081 144.482 87.5054 144.482 104.65C144.482 118.09 136.662 129.722 125.3 135.312L125.303 135.322C139.949 130.074 150.409 116.201 150.409 99.9068C150.409 96.0512 149.883 92.6523 148.735 88.8271Z" fill="#E4032E"/>
<path d="M171.127 83.0775V87.024H194.618V93.7873H199.135V83.0775H171.132H171.127ZM170.803 105.827V109.734H194.698V118.349H199.217V105.827H187.451V100.593H201.903V96.6461H168.524V100.593H182.933V105.827H170.803ZM204.835 111.867L208.945 113.638L216.721 93.6665L224.618 113.357L228.608 111.626L216.721 82.594L204.835 111.867ZM235.978 100.674H241.19V96.2046H235.978V82.3523H231.499V118.268H235.978V100.674ZM258.855 98.4196H252.668V87.1449H258.853V98.4171L258.855 98.4196ZM263.17 87.1449H266.426V83.4006H244.893V87.1449H248.352V98.4171H244.893V102.082H266.426V98.4196H263.17V87.1449ZM276.401 105.343V82.3548H271.883V87.5864H266.589V91.1309H271.883V94.4336H266.589V97.9756H271.883V105.343H276.401ZM276.726 117.545V113.599H251.446V105.545H246.968V117.545H276.726ZM290.975 89.1971L281.815 100.913L285.112 103.412L292.603 93.4667L300.214 103.131L303.431 100.713L294.229 89.1971H303.107V85.4528H295.002V81.9503H290.239V85.4528H281.733V89.1971H290.975ZM312.022 95.2401H317.232V90.8497H312.02V82.3523H307.541V105.343H312.02V95.2377L312.022 95.2401ZM284.012 105.545V117.545H312.958V113.599H288.531V105.545H284.012ZM337.666 92.0978C337.666 93.5062 337.137 94.7543 336.08 95.7606C335.02 96.8089 333.761 97.3318 332.294 97.3318C331.594 97.3433 330.898 97.2094 330.253 96.9388C329.608 96.6682 329.027 96.2668 328.549 95.7606C328.041 95.2929 327.637 94.7255 327.364 94.0948C327.09 93.4641 326.953 92.784 326.96 92.0978C326.96 90.6474 327.489 89.3993 328.549 88.393C329.566 87.3866 330.828 86.8637 332.294 86.8637C333.758 86.8637 335.02 87.3866 336.08 88.393C337.137 89.3993 337.666 90.6474 337.666 92.0978ZM342.105 92.0978C342.105 90.8497 341.86 89.6805 341.332 88.5952C340.81 87.5087 340.091 86.5257 339.212 85.6945C338.301 84.85 337.239 84.1808 336.08 83.7213C334.879 83.2348 333.592 82.9892 332.294 82.9986C330.996 82.9889 329.708 83.2345 328.506 83.7213C327.346 84.1805 326.283 84.8497 325.372 85.6945C324.476 86.5406 323.786 87.5075 323.257 88.5952C322.726 89.6805 322.484 90.8497 322.484 92.0978C322.484 93.3458 322.726 94.515 323.257 95.6003C323.786 96.6856 324.479 97.6525 325.372 98.459C326.269 99.3051 327.327 99.9488 328.506 100.432C329.688 100.916 330.95 101.157 332.294 101.157C333.592 101.166 334.879 100.92 336.08 100.432C337.24 99.9731 338.303 99.3039 339.214 98.459C340.11 97.6525 340.801 96.688 341.332 95.6003C341.86 94.515 342.105 93.3458 342.105 92.0978ZM344.586 103.412H320.446V107.398H330.097V117.101H334.574V107.398H344.586V103.412ZM347.479 118.268H351.955V82.3548H347.476L347.479 118.268ZM375.037 90.2454C375.037 91.4934 374.589 92.5812 373.653 93.4272C372.716 94.3127 371.576 94.7542 370.314 94.7542C369.052 94.7542 367.953 94.3103 367.017 93.4248C366.563 93.0264 366.201 92.5361 365.955 91.9871C365.71 91.4381 365.586 90.8432 365.594 90.2429C365.594 88.9553 366.082 87.87 367.017 86.9845C367.907 86.1499 369.088 85.6876 370.314 85.6945C371.576 85.6945 372.716 86.1385 373.653 86.9845C374.589 87.87 375.037 88.9578 375.037 90.2454ZM379.394 90.2454C379.394 89.0762 379.15 87.9909 378.661 86.9845C378.18 85.9972 377.532 85.0981 376.746 84.3256C375.897 83.5695 374.918 82.9698 373.855 82.5546C372.729 82.1135 371.526 81.8948 370.314 81.9108C369.116 81.8946 367.926 82.1134 366.813 82.5546C365.716 82.9986 364.738 83.561 363.883 84.3256C363.11 85.0902 362.459 85.9782 361.97 86.9845C361.479 88.0024 361.228 89.1175 361.237 90.2454C361.237 91.412 361.481 92.4603 361.97 93.4667C362.459 94.4731 363.11 95.3585 363.883 96.1232C364.738 96.8878 365.716 97.4527 366.813 97.8942C367.913 98.3382 369.052 98.5404 370.314 98.5404C371.576 98.5404 372.758 98.3382 373.855 97.8942C374.955 97.4502 375.893 96.8878 376.748 96.1232C377.521 95.3585 378.17 94.4706 378.661 93.4667C379.15 92.4603 379.394 91.412 379.394 90.2454ZM382.611 99.9883H358.469V103.935H368.484V109.371H373.002V103.935H382.608L382.611 99.9883ZM385.499 92.6626H380.451V96.5252H385.499V109.773H389.978V82.3523H385.499V92.6626ZM390.424 117.666V113.759H365.429V107.395H360.953V117.666H390.424ZM397.264 85.9363V89.7619H419.409V85.9387H410.781V82.1106H405.935V85.9363H397.264ZM412.895 98.459C412.895 99.6257 412.446 100.674 411.594 101.518C411.171 101.933 410.669 102.261 410.116 102.483C409.564 102.704 408.972 102.815 408.377 102.808C407.793 102.818 407.213 102.709 406.673 102.488C406.134 102.266 405.647 101.937 405.242 101.52C404.827 101.123 404.499 100.647 404.275 100.121C404.051 99.5951 403.937 99.0297 403.94 98.459C403.94 97.2923 404.389 96.244 405.242 95.4005C406.097 94.5544 407.115 94.1499 408.377 94.1499C409.638 94.1499 410.696 94.5545 411.594 95.398C412.449 96.2441 412.895 97.2923 412.895 98.459ZM417.252 98.459C417.252 97.3737 417.007 96.3255 416.559 95.3191C416.096 94.3563 415.462 93.4834 414.688 92.7415C413.869 91.976 412.899 91.3865 411.838 91.01C410.73 90.6044 409.558 90.3997 408.377 90.4057C407.155 90.4057 406.017 90.6079 404.918 91.01C403.818 91.412 402.883 91.9769 402.067 92.7415C401.293 93.4834 400.66 94.3564 400.197 95.3191C399.748 96.3255 399.504 97.3713 399.504 98.459C399.504 99.5443 399.748 100.593 400.195 101.599C400.643 102.605 401.292 103.451 402.067 104.216C402.883 104.941 403.818 105.506 404.918 105.948C405.284 106.071 405.691 106.189 406.14 106.31V110.861H396.489V114.766H420.628V110.861H410.616V106.31C411.065 106.189 411.471 106.068 411.838 105.948C412.935 105.504 413.873 104.941 414.688 104.216C415.461 103.451 416.11 102.605 416.559 101.601C417.007 100.593 417.252 99.5468 417.252 98.459ZM423.521 118.268H428V82.3548H423.521V118.268Z" fill="#C2C2C2"/>
</svg>
