<svg width="500" height="200" viewBox="0 0 500 200" fill="none" xmlns="http://www.w3.org/2000/svg">
<rect width="500" height="200" fill="black"/>
<path d="M72.4508 86.567V88.373C70.4298 88.373 64.2378 88.502 63.0338 88.631C62.2168 88.674 60.7118 88.975 59.8948 89.233C58.7768 88.846 57.5728 88.115 56.7128 87.427C56.5408 87.298 56.5408 87.169 56.5838 87.083L56.8418 86.524C57.9598 86.739 59.4218 86.825 60.4538 86.825C62.0448 86.825 70.4728 86.696 72.4508 86.567ZM75.6758 88.588L72.0638 88.373L72.3218 86.567L73.7838 85.836C73.9558 85.75 74.2568 85.75 74.4718 85.836C75.0308 86.051 75.9768 86.567 76.3208 86.782C76.4928 86.954 76.5358 87.126 76.4068 87.341L75.6758 88.588ZM55.4658 108.196L54.9498 107.637C54.8638 107.508 54.8208 107.422 54.9498 107.293C63.0768 101.918 69.2688 94.866 72.0638 88.373L74.0418 87.728L75.6758 88.588C72.9668 95.769 65.1408 103.509 55.8958 108.11C55.7238 108.196 55.5948 108.239 55.4658 108.196ZM85.8238 105.487H84.0178C83.8028 104.111 83.7598 101.015 83.7598 99.381V84.804C82.9858 83.901 81.6528 83.084 80.1048 82.611L80.4488 81.536C80.4918 81.407 80.6208 81.364 80.9648 81.364C82.5128 81.407 85.1788 81.966 86.3828 82.439C86.7698 82.611 86.9418 82.869 86.8988 83.342L86.8128 85.578V98.392C86.8128 101.015 86.4258 103.853 85.8238 105.487ZM69.9138 110.002L66.6028 109.916C66.1298 109.443 65.2698 108.927 64.4098 108.626L64.6248 107.766C64.6678 107.637 64.7968 107.594 65.0548 107.594C66.3018 107.594 68.5808 107.809 69.8278 108.024L69.9138 110.002ZM69.5698 122.3H67.8498C67.6348 121.741 67.4628 120.967 67.4198 120.236L66.6028 109.916L69.9138 109.615L70.1718 119.677C70.1718 121.01 69.9998 121.698 69.5698 122.3ZM86.0818 120.924L69.8708 121.139L69.9138 119.204C73.3538 119.204 79.3308 119.075 82.1688 118.903L83.3728 118.602C84.2328 118.344 84.7488 118.301 85.2648 118.559L86.2968 119.032C86.5118 119.161 86.5978 119.29 86.5978 119.548C86.5978 120.15 86.3398 120.709 86.0818 120.924ZM83.1148 107.723L83.3298 109.744C79.0298 109.701 73.9558 109.873 69.7848 110.002V108.024C72.9668 107.981 79.9758 107.895 83.1148 107.723ZM86.5118 109.959L83.2438 109.744L82.9858 107.723L84.4048 107.078C84.6198 106.992 84.8778 106.992 85.0928 107.078C85.5658 107.293 86.5118 107.723 86.8558 107.981C87.0278 108.067 87.0278 108.239 86.9418 108.454L86.5118 109.959ZM85.4798 118.731L83.0288 118.774L83.2438 109.744L86.5118 109.916C86.3828 112.668 85.9958 115.893 85.4798 118.731ZM125.075 111.894H123.312C123.097 110.174 123.054 106.476 123.054 104.455V84.804C122.28 83.901 120.947 83.084 119.399 82.611L119.743 81.536C119.786 81.407 119.915 81.364 120.259 81.364C121.807 81.407 124.473 81.966 125.677 82.439C126.064 82.611 126.236 82.869 126.193 83.342L126.107 85.578V103.423C126.107 106.433 125.72 109.787 125.075 111.894ZM133.589 98.134L125.505 98.263V96.414L129.117 96.285L130.493 95.468C131.783 95.425 133.503 95.511 134.277 95.683C134.664 95.769 134.922 96.07 134.922 96.414C134.922 97.145 134.664 97.747 134.406 97.919C134.191 98.091 133.847 98.134 133.589 98.134ZM128.472 120.881L110.498 121.01L110.928 119.161C113.594 119.204 121.076 119.118 123.484 119.032L124.86 118.258C126.15 118.258 128.085 118.387 128.945 118.559C129.246 118.645 129.504 118.86 129.504 119.161C129.504 119.978 129.203 120.494 129.031 120.709C128.859 120.838 128.687 120.881 128.472 120.881ZM123.613 101.101V102.778C117.335 104.799 108.563 106.261 102.586 106.648C102.113 106.691 101.64 106.691 101.21 106.691C99.8771 106.691 98.9311 105.874 98.5011 104.627C98.3721 104.197 98.3291 103.552 98.3291 102.692V97.618H101.468V103.423C101.468 103.896 101.64 104.154 102.242 104.154C107.961 104.068 117.679 102.864 123.613 101.101ZM111.831 86.395V88.287C110.283 88.287 104.091 88.416 102.844 88.502C102.07 88.545 100.651 88.846 99.7051 89.147C98.5011 88.674 97.3831 87.986 96.5231 87.298C96.3511 87.169 96.3511 86.997 96.3941 86.868L96.6951 86.309C97.7271 86.567 99.2321 86.653 100.264 86.653C101.984 86.653 109.939 86.481 111.831 86.395ZM114.97 88.459L111.573 88.287L111.659 86.395L112.992 85.75C113.164 85.621 113.465 85.621 113.68 85.75C114.153 85.965 115.013 86.481 115.357 86.739C115.529 86.911 115.572 87.083 115.443 87.298L114.97 88.459ZM114.239 94.78H111.573C111.659 93.49 111.659 89.491 111.573 88.244L114.97 88.373C114.927 90.093 114.54 93.275 114.239 94.78ZM114.755 96.543L101.081 96.887V95.038C102.844 95.038 109.466 94.866 110.885 94.737L111.788 94.522C112.648 94.307 113.637 94.307 113.981 94.522L114.884 95.038C115.056 95.124 115.142 95.296 115.142 95.425C115.142 95.898 114.927 96.371 114.755 96.543ZM110.928 119.161L110.498 121.01C107.66 121.01 106.714 120.021 106.714 117.656V114.302H109.853V118.043C109.853 118.817 110.154 119.161 110.928 119.161ZM109.853 115.377H106.714V112.754C106.026 112.195 104.822 111.722 103.661 111.464L103.876 110.518C103.919 110.346 104.091 110.26 104.349 110.26C105.768 110.26 108.219 110.432 109.294 110.647C109.724 110.776 109.896 111.034 109.896 111.507L109.853 113.399V115.377ZM101.468 100.198H98.3291V97.059C97.6841 96.586 96.7381 96.199 95.7491 95.984L95.9211 95.124C95.9641 94.995 96.0931 94.866 96.3511 94.866C97.5551 94.866 100.393 94.909 101.554 95.038L101.468 96.887V100.198ZM152.157 89.405L148.459 90.308C148.072 89.491 146.954 88.502 145.836 87.9L146.309 86.997C146.438 86.868 146.567 86.782 146.825 86.825C148.33 87.126 150.738 87.986 151.641 88.588C151.985 88.76 152.157 89.061 152.157 89.405ZM136.806 110.733L136.29 110.303C136.204 110.174 136.204 110.088 136.376 109.873C142.525 103.982 147.04 96.543 148.459 90.308L152.157 89.405C152.157 89.749 152.114 90.093 152.028 90.351C150.523 97.317 145.191 104.928 137.279 110.733C137.107 110.819 136.978 110.819 136.806 110.733ZM156.5 108.669L147.341 98.349L154.694 103.036L156.801 104.111C157.532 105.143 158.478 106.691 158.865 107.594C159.123 108.196 159.166 108.626 159.037 108.927C158.779 109.443 157.962 109.701 157.489 109.529C157.231 109.443 156.801 109.013 156.5 108.669ZM154.694 103.036L154.522 103.251L147.341 98.349L148.373 96.5L154.694 103.036ZM175.119 100.972L167.035 101.101V99.252L170.647 99.123L172.023 98.306C173.313 98.263 175.033 98.349 175.807 98.521C176.194 98.607 176.452 98.908 176.452 99.209C176.452 99.983 176.194 100.585 175.936 100.757C175.721 100.929 175.377 100.972 175.119 100.972ZM166.605 122.644H164.842C164.67 120.838 164.584 116.624 164.584 114.732V84.804C163.81 83.901 162.434 83.084 160.929 82.611L161.23 81.536C161.273 81.407 161.402 81.364 161.703 81.364C163.294 81.407 166.003 81.966 167.207 82.439C167.594 82.611 167.766 82.869 167.766 83.342L167.637 85.578V113.657C167.637 116.151 167.25 120.193 166.605 122.644ZM209.119 122.601H207.356C207.227 120.666 207.098 116.753 207.098 114.775V107.723H210.151V113.786C210.151 116.065 209.721 120.236 209.119 122.601ZM221.374 106.648L222.922 106.003C224.513 106.046 226.749 106.304 227.738 106.648C228.082 106.734 228.297 106.992 228.297 107.336C228.297 108.067 227.824 108.755 227.394 108.927C226.233 108.798 223.696 108.712 222.406 108.712C219.439 108.669 199.745 108.927 197.466 109.056C196.391 109.142 194.198 109.572 193.123 109.916C191.575 109.4 189.984 108.54 188.952 107.637C188.823 107.551 188.78 107.422 188.823 107.25L189.124 106.648C190.543 106.906 192.521 107.078 193.897 107.078C196.477 107.121 218.364 106.863 221.374 106.648ZM200.949 81.966L201.25 81.536C205.335 82.267 209.936 82.353 213.161 82.353C213.548 82.353 213.72 82.482 213.806 82.697C213.978 83.127 213.935 84.03 213.72 84.374C213.591 84.589 213.376 84.675 213.118 84.675C210.581 84.675 206.883 84.761 204.862 84.933C204.432 84.933 204.217 84.933 203.959 84.761C202.97 84.288 201.766 83.299 200.992 82.31C200.863 82.138 200.906 82.052 200.949 81.966ZM218.364 87.427L219.783 86.739C221.116 86.782 223.051 87.04 223.868 87.341C224.169 87.427 224.341 87.642 224.341 87.857C224.341 88.631 223.911 89.276 223.567 89.448C222.664 89.319 220.342 89.276 219.353 89.276C216.945 89.276 202.024 89.405 199.745 89.534C198.885 89.577 197.208 89.921 196.348 90.222C195.101 89.792 193.596 88.975 192.65 88.201C192.521 88.115 192.478 87.943 192.521 87.857L192.822 87.298C194.112 87.513 196.004 87.685 197.036 87.685C199.272 87.728 215.784 87.556 218.364 87.427ZM218.02 97.489C218.02 101.445 213.978 104.111 208.474 104.111C202.927 104.111 198.842 101.445 198.842 97.489C198.842 93.576 202.927 90.91 208.474 90.91C213.978 90.91 218.02 93.576 218.02 97.489ZM214.924 97.489C214.924 94.694 212.172 92.974 208.474 92.974C204.733 92.974 201.981 94.694 201.981 97.489C201.981 100.37 204.733 102.047 208.474 102.047C212.172 102.047 214.924 100.37 214.924 97.489ZM253.487 84.89L249.488 85.492C249.101 84.89 248.198 84.159 247.209 83.686L247.768 82.783C247.854 82.654 248.026 82.611 248.327 82.654C249.875 82.869 252.025 83.514 252.971 84.03C253.315 84.245 253.487 84.503 253.487 84.89ZM234.567 99.467L234.094 98.865C234.008 98.736 234.051 98.607 234.223 98.521C241.275 95.081 246.822 90.222 249.488 85.492L253.487 84.89C253.487 85.32 253.358 85.621 253.229 85.879C249.961 91.641 243.253 96.543 234.997 99.467C234.782 99.553 234.653 99.553 234.567 99.467ZM262.904 103.939L264.452 103.251C266.043 103.294 268.279 103.552 269.268 103.896C269.612 103.982 269.827 104.24 269.827 104.584C269.827 105.358 269.354 106.003 268.924 106.175C267.763 106.046 265.226 105.96 263.936 105.96C260.969 105.96 241.275 106.175 238.996 106.304C237.921 106.39 235.728 106.82 234.653 107.164C233.105 106.648 231.514 105.788 230.482 104.885C230.353 104.799 230.31 104.67 230.353 104.498L230.654 103.896C232.073 104.154 234.051 104.326 235.427 104.369C238.007 104.412 259.894 104.111 262.904 103.939ZM251.939 99.252L248.886 98.779C248.413 98.22 247.467 97.661 246.521 97.36L246.779 96.414C246.865 96.328 246.951 96.199 247.295 96.199C248.585 96.242 250.692 96.5 251.724 96.801C252.068 96.887 252.197 97.145 252.111 97.489L251.939 99.252ZM251.81 104.498H248.886V98.779L251.939 99.252L251.81 104.498ZM263.678 97.36L248.972 89.964L259.249 92.845L262.087 93.361C263.162 93.963 264.581 94.995 265.226 95.554C265.699 95.984 265.914 96.328 265.914 96.629C265.914 97.188 265.312 97.704 264.882 97.747C264.581 97.79 264.108 97.575 263.678 97.36ZM259.249 92.845L259.077 93.103L248.972 89.964L250.219 88.502L259.249 92.845ZM262.56 121.139L243.683 121.225L244.113 119.376C246.951 119.419 255.035 119.376 257.615 119.247L258.991 118.473C260.281 118.473 262.216 118.602 263.076 118.817C263.377 118.86 263.592 119.075 263.592 119.376C263.592 120.193 263.334 120.709 263.119 120.924C262.99 121.096 262.818 121.139 262.56 121.139ZM244.156 119.376L243.683 121.225C240.931 121.225 239.942 120.193 239.942 117.871V114.001H243.081V118.258C243.081 119.032 243.339 119.376 244.156 119.376ZM243.081 115.119H239.942V112.496C239.211 111.937 238.05 111.464 236.889 111.206L237.147 110.26C237.19 110.088 237.276 110.002 237.577 110.002C238.996 110.002 241.447 110.131 242.522 110.389C242.952 110.475 243.167 110.733 243.167 111.206L243.081 113.141V115.119ZM302.106 86.567V88.373C300.085 88.373 293.893 88.502 292.689 88.631C291.872 88.674 290.367 88.975 289.55 89.233C288.432 88.846 287.228 88.115 286.368 87.427C286.196 87.298 286.196 87.169 286.239 87.083L286.497 86.524C287.615 86.739 289.077 86.825 290.109 86.825C291.7 86.825 300.128 86.696 302.106 86.567ZM305.331 88.588L301.719 88.373L301.977 86.567L303.439 85.836C303.611 85.75 303.912 85.75 304.127 85.836C304.686 86.051 305.632 86.567 305.976 86.782C306.148 86.954 306.191 87.126 306.062 87.341L305.331 88.588ZM285.121 108.196L284.605 107.637C284.519 107.508 284.476 107.422 284.605 107.293C292.732 101.918 298.924 94.866 301.719 88.373L303.697 87.728L305.331 88.588C302.622 95.769 294.796 103.509 285.551 108.11C285.379 108.196 285.25 108.239 285.121 108.196ZM315.479 105.487H313.673C313.458 104.111 313.415 101.015 313.415 99.381V84.804C312.641 83.901 311.308 83.084 309.76 82.611L310.104 81.536C310.147 81.407 310.276 81.364 310.62 81.364C312.168 81.407 314.834 81.966 316.038 82.439C316.425 82.611 316.597 82.869 316.554 83.342L316.468 85.578V98.392C316.468 101.015 316.081 103.853 315.479 105.487ZM299.569 110.002L296.258 109.916C295.785 109.443 294.925 108.927 294.065 108.626L294.28 107.766C294.323 107.637 294.452 107.594 294.71 107.594C295.957 107.594 298.236 107.809 299.483 108.024L299.569 110.002ZM299.225 122.3H297.505C297.29 121.741 297.118 120.967 297.075 120.236L296.258 109.916L299.569 109.615L299.827 119.677C299.827 121.01 299.655 121.698 299.225 122.3ZM315.737 120.924L299.526 121.139L299.569 119.204C303.009 119.204 308.986 119.075 311.824 118.903L313.028 118.602C313.888 118.344 314.404 118.301 314.92 118.559L315.952 119.032C316.167 119.161 316.253 119.29 316.253 119.548C316.253 120.15 315.995 120.709 315.737 120.924ZM312.77 107.723L312.985 109.744C308.685 109.701 303.611 109.873 299.44 110.002V108.024C302.622 107.981 309.631 107.895 312.77 107.723ZM316.167 109.959L312.899 109.744L312.641 107.723L314.06 107.078C314.275 106.992 314.533 106.992 314.748 107.078C315.221 107.293 316.167 107.723 316.511 107.981C316.683 108.067 316.683 108.239 316.597 108.454L316.167 109.959ZM315.135 118.731L312.684 118.774L312.899 109.744L316.167 109.916C316.038 112.668 315.651 115.893 315.135 118.731ZM357.267 107.465H355.461C355.246 105.96 355.203 102.563 355.203 100.972V84.804C354.429 83.901 353.096 83.084 351.548 82.611L351.892 81.536C351.935 81.407 352.064 81.364 352.408 81.364C353.956 81.407 356.622 81.966 357.869 82.439C358.213 82.611 358.385 82.869 358.342 83.342L358.256 85.578V99.983C358.256 102.133 357.826 105.573 357.267 107.465ZM357.869 114.216C357.869 119.032 353.999 122.3 348.624 122.3C343.249 122.3 339.336 119.032 339.336 114.216C339.336 109.529 343.249 106.433 348.624 106.433C353.999 106.433 357.869 109.529 357.869 114.216ZM354.687 114.216C354.687 110.604 352.15 108.454 348.624 108.454C345.098 108.454 342.518 110.604 342.518 114.216C342.518 117.785 345.098 119.892 348.624 119.892C352.15 119.892 354.687 117.785 354.687 114.216ZM346.216 94.694C346.216 99.768 342.26 103.38 336.799 103.38C331.338 103.38 327.339 99.768 327.339 94.694C327.339 89.62 331.338 86.051 336.799 86.051C342.26 86.051 346.216 89.62 346.216 94.694ZM343.12 94.694C343.12 90.781 340.411 88.33 336.799 88.33C333.187 88.33 330.521 90.781 330.521 94.694C330.521 98.65 333.187 101.015 336.799 101.015C340.411 101.015 343.12 98.65 343.12 94.694ZM349.398 89.061L351.634 90.824C350.817 90.91 349.742 91.125 348.925 91.426C347.764 90.953 346.732 90.351 345.915 89.706C345.786 89.577 345.743 89.448 345.786 89.276L346.044 88.846C347.076 88.975 348.323 89.061 349.398 89.061ZM356.321 88.803V90.695C354.988 90.652 352.537 90.695 351.634 90.824L349.398 89.061C350.903 89.061 354.472 88.975 356.321 88.803ZM348.237 97.919L350.473 99.682C349.699 99.768 348.581 99.983 347.764 100.284C346.646 99.811 345.571 99.209 344.797 98.564C344.625 98.435 344.625 98.306 344.668 98.134L344.883 97.704C345.915 97.833 347.205 97.919 348.237 97.919ZM355.805 97.661V99.553C354.3 99.467 351.591 99.553 350.473 99.682L348.237 97.919C349.828 97.919 353.827 97.833 355.805 97.661ZM373.557 96.973H370.461V90.308C369.902 89.792 368.956 89.362 368.01 89.147L368.225 88.158C368.268 88.029 368.397 87.943 368.655 87.943C369.816 87.943 372.525 88.072 373.643 88.201L373.557 90.093V96.973ZM390.198 101.187V102.778C385.554 104.455 379.19 105.616 374.847 105.917C374.331 105.96 373.815 105.96 373.471 105.96C372.052 105.96 371.106 105.143 370.676 103.853C370.547 103.466 370.461 102.778 370.461 101.918V93.06H373.557V102.563C373.557 103.122 373.729 103.337 374.331 103.337C378.502 103.294 385.726 102.391 390.198 101.187ZM384.006 89.62L373.428 90.093V88.201C374.718 88.158 379.276 87.943 380.308 87.771L381.34 87.126C382.2 87.126 383.705 87.255 384.436 87.384C384.78 87.427 384.952 87.642 384.952 87.943C384.952 88.674 384.737 89.19 384.522 89.448C384.436 89.577 384.178 89.62 384.006 89.62ZM383.619 96.844L372.783 97.274V95.511C374.288 95.511 378.416 95.425 379.749 95.253L380.867 94.694C381.899 94.651 383.275 94.737 384.049 94.866C384.35 94.952 384.608 95.167 384.608 95.468C384.608 96.027 384.393 96.5 384.221 96.672C384.092 96.801 383.877 96.844 383.619 96.844ZM400.346 107.508H398.54C398.411 106.046 398.282 102.993 398.282 101.445V84.632C397.637 83.815 396.347 83.041 394.928 82.611L395.272 81.579C395.315 81.407 395.487 81.364 395.788 81.364C397.207 81.407 399.787 81.923 400.905 82.396C401.292 82.568 401.464 82.826 401.421 83.256L401.292 85.363V100.456C401.292 102.735 400.905 105.788 400.346 107.508ZM391.875 107.379H390.155C389.94 105.917 389.897 103.036 389.897 101.359V86.782C389.295 86.008 388.091 85.32 386.844 84.89L387.188 83.901C387.231 83.772 387.36 83.643 387.704 83.643C389.037 83.729 391.402 84.202 392.434 84.675C392.778 84.847 392.907 85.062 392.907 85.492L392.821 87.341V100.413C392.821 102.907 392.434 105.745 391.875 107.379ZM399.314 96.242L391.789 96.414V94.565L399.314 94.393V96.242ZM398.024 109.314V111.378C394.713 111.335 384.909 111.464 382.931 111.593C381.899 111.636 380.05 111.937 379.104 112.281C377.771 111.808 376.395 111.077 375.363 110.303C375.234 110.174 375.191 110.045 375.234 109.873L375.535 109.314C376.782 109.529 378.545 109.658 379.749 109.658C381.899 109.658 395.401 109.443 398.024 109.314ZM400.905 111.55L397.809 111.335L397.852 109.314L399.056 108.755C399.228 108.669 399.486 108.669 399.701 108.755C400.174 108.97 401.034 109.486 401.335 109.744C401.507 109.873 401.507 110.045 401.421 110.26L400.905 111.55ZM399.959 123.16H398.067C397.895 121.741 397.809 119.161 397.809 117.613V111.335H400.905L400.819 116.882C400.819 118.645 400.432 121.526 399.959 123.16ZM440.07 106.089H438.264C438.049 104.67 438.006 101.617 438.006 99.983V84.804C437.232 83.901 435.899 83.084 434.351 82.611L434.695 81.536C434.738 81.407 434.867 81.364 435.211 81.364C436.759 81.407 439.425 81.966 440.629 82.439C441.016 82.611 441.188 82.869 441.145 83.342L441.059 85.578V98.994C441.059 101.617 440.672 104.455 440.07 106.089ZM424.074 110.088L420.763 110.045C420.29 109.572 419.43 109.056 418.57 108.712L418.828 107.895C418.871 107.723 418.957 107.68 419.215 107.68C420.462 107.68 422.741 107.895 423.988 108.11L424.074 110.088ZM423.73 122.257H422.01C421.795 121.741 421.623 120.924 421.58 120.15L420.763 110.002L424.074 109.701L424.332 119.634C424.332 120.967 424.16 121.612 423.73 122.257ZM440.328 120.881L424.117 121.096L424.16 119.161C427.6 119.161 433.577 119.032 436.415 118.86L437.619 118.559C438.479 118.301 438.995 118.258 439.511 118.516L440.543 118.989C440.758 119.118 440.844 119.247 440.844 119.505C440.844 120.107 440.586 120.666 440.328 120.881ZM437.361 107.809L437.533 109.83C433.276 109.787 428.159 109.959 423.945 110.088V108.11C427.17 108.067 434.179 107.981 437.361 107.809ZM440.758 110.045L437.49 109.83L437.232 107.809L438.651 107.164C438.866 107.078 439.124 107.078 439.339 107.164C439.812 107.379 440.758 107.809 441.102 108.067C441.274 108.153 441.274 108.368 441.188 108.54L440.758 110.045ZM439.726 118.731H437.275L437.49 109.83L440.758 110.002C440.629 112.711 440.242 115.936 439.726 118.731ZM438.307 97.575V99.252C432.029 101.359 423.472 102.95 417.624 103.38C417.108 103.423 416.635 103.423 416.205 103.423C414.786 103.423 413.883 102.606 413.453 101.316C413.324 100.929 413.238 100.241 413.238 99.338V90.437H416.377V100.026C416.377 100.585 416.549 100.8 417.151 100.8C422.784 100.671 432.373 99.381 438.307 97.575ZM416.377 95.167H413.238V89.061C412.593 88.502 411.389 87.986 410.271 87.685L410.486 86.653C410.529 86.481 410.701 86.395 410.959 86.395C412.292 86.395 414.743 86.567 415.818 86.825C416.248 86.911 416.42 87.169 416.42 87.642L416.377 89.706V95.167Z" fill="white" fill-opacity="0.8"/>
</svg>
